<svg width="16" height="16" viewBox="0 0 16 16" fill="none" xmlns="http://www.w3.org/2000/svg">
<path fill-rule="evenodd" clip-rule="evenodd" d="M7.99995 10.1213L13.3032 15.4246C13.889 16.0104 14.8388 16.0104 15.4246 15.4246C16.0104 14.8388 16.0104 13.889 15.4246 13.3032L10.1213 7.99995L15.4246 2.69666C16.0104 2.11087 16.0104 1.16112 15.4246 0.575338C14.8388 -0.0104482 13.889 -0.0104477 13.3032 0.575338L7.99995 5.87863L2.69665 0.575326C2.11086 -0.0104602 1.16111 -0.0104603 0.575326 0.575326C-0.0104603 1.16111 -0.0104603 2.11086 0.575326 2.69665L5.87863 7.99995L0.575326 13.3033C-0.01046 13.889 -0.01046 14.8388 0.575326 15.4246C1.16111 16.0104 2.11086 16.0104 2.69665 15.4246L7.99995 10.1213Z" fill="#222222" style="fill:#222222;fill:color(display-p3 0.1333 0.1333 0.1333);fill-opacity:1;"/>
</svg>
