<svg width="20" height="18" viewBox="0 0 20 18" fill="none" xmlns="http://www.w3.org/2000/svg">
<path d="M0.5 2C0.5 1.17157 1.17157 0.5 2 0.5H18C18.8284 0.5 19.5 1.17157 19.5 2C19.5 2.82843 18.8284 3.5 18 3.5H2C1.17157 3.5 0.5 2.82843 0.5 2Z" fill="#222222" style="fill:#222222;fill:color(display-p3 0.1333 0.1333 0.1333);fill-opacity:1;"/>
<path d="M0.5 9C0.5 8.17157 1.17157 7.5 2 7.5H18C18.8284 7.5 19.5 8.17157 19.5 9C19.5 9.82843 18.8284 10.5 18 10.5H2C1.17157 10.5 0.5 9.82843 0.5 9Z" fill="#222222" style="fill:#222222;fill:color(display-p3 0.1333 0.1333 0.1333);fill-opacity:1;"/>
<path d="M2 14.5C1.17157 14.5 0.5 15.1716 0.5 16C0.5 16.8284 1.17157 17.5 2 17.5H18C18.8284 17.5 19.5 16.8284 19.5 16C19.5 15.1716 18.8284 14.5 18 14.5H2Z" fill="#222222" style="fill:#222222;fill:color(display-p3 0.1333 0.1333 0.1333);fill-opacity:1;"/>
</svg>
